<svg width="335" height="52" viewBox="0 0 335 52" fill="none" xmlns="http://www.w3.org/2000/svg">
<path d="M24.8152 51.8095H11.9046C5.03011 51.8095 0 47.0403 0 40.5011V37.3899H8.38351V40.911C8.38351 42.5877 9.7994 44.0222 11.3271 44.0222H25.4114C26.9204 44.0222 28.3549 42.6063 28.3549 40.911V34.614C28.3549 29.6771 18.4624 31.3538 12.2586 31.1861C5.4586 30.9439 0.353975 26.3982 0.353975 19.7845V14.3446C0.353975 7.80542 5.38408 3.03613 12.2586 3.03613H24.1631C31.0376 3.03613 36.0677 7.80542 36.0677 14.3446V17.5303H27.6842V13.9347C27.6842 12.258 26.2683 10.8235 24.7407 10.8235H11.6624C10.1534 10.8235 8.73749 12.2394 8.73749 13.9347V20.3062C8.73749 25.2431 18.63 23.5664 24.8338 23.6596C31.5406 23.8272 36.7384 28.4289 36.7384 35.0611V40.5011C36.7384 47.0403 31.7083 51.8095 24.8338 51.8095H24.8152Z" fill="#B26E0F"/>
<path d="M51.8105 51.6419V44.0222H58.8527V10.6558H51.8105V3.03613H74.446V10.6558H67.3107V44.0222H74.446V51.6419H51.8105Z" fill="#B26E0F"/>
<path d="M121.897 51.6424V16.9347L113.01 27.1626H107.813L98.9262 16.9347V51.6424H90.375V3.01807H97.324L110.663 18.5182C110.998 17.5122 123.481 3.01807 123.481 3.01807H130.43V51.6424H121.878H121.897Z" fill="#B26E0F"/>
<path d="M154.759 10.824V23.3993H172.196V31.3543H154.759V51.6424H146.375V3.01807H177.394V10.8054H154.759V10.824Z" fill="#B26E0F"/>
<path d="M218.138 51.6424H203.551C196.677 51.6424 191.646 46.8731 191.646 40.3154V14.3265C191.646 7.78736 196.677 3.01807 203.551 3.01807H218.138C225.013 3.01807 230.043 7.78736 230.043 14.3265V40.3154C230.043 46.8545 225.013 51.6424 218.138 51.6424ZM221.659 13.9353C221.659 12.2586 220.244 10.824 218.735 10.824H202.974C201.465 10.824 200.03 12.2399 200.03 13.9353V40.7625C200.03 42.4392 201.465 43.8737 202.974 43.8737H218.735C220.244 43.8737 221.659 42.4392 221.659 40.7625V13.9353Z" fill="#B26E0F"/>
<path d="M273.974 51.6424V36.8875L254.524 16.5994V51.6424H245.973V3.01807H253.182L273.974 24.8897V3.01807H282.525V51.6424H273.974Z" fill="#B26E0F"/>
<path d="M331.652 23.8086L320.921 34.4464V51.6232H312.37V34.4464L301.639 23.8086C299.124 21.3867 298.453 19.4492 298.453 16.0213V3.03613H306.837V15.6859C306.837 17.4558 306.837 17.698 307.917 18.704L316.543 27.516L325.262 18.704C326.342 17.698 326.342 17.4558 326.342 15.6859V3.03613H334.8V16.0213C334.8 19.4492 334.13 21.3867 331.615 23.8086H331.652Z" fill="#B26E0F"/>
<path d="M24.8152 48.792H11.9046C5.03011 48.792 0 44.0227 0 37.4835V34.3723H8.38351V37.8934C8.38351 39.5701 9.7994 41.0046 11.3271 41.0046H25.4114C26.9204 41.0046 28.3549 39.5887 28.3549 37.8934V31.5964C28.3549 26.6595 18.4624 28.3362 12.2586 28.1685C5.4586 27.9263 0.353975 23.3806 0.353975 16.7669V11.327C0.353975 4.78784 5.38408 0.0185547 12.2586 0.0185547H24.1631C31.0376 0.0185547 36.0677 4.78784 36.0677 11.327V14.5127H27.6842V10.9171C27.6842 9.24042 26.2683 7.80591 24.7407 7.80591H11.6624C10.1534 7.80591 8.73749 9.22179 8.73749 10.9171V17.2886C8.73749 22.2255 18.63 20.5488 24.8338 20.642C31.5406 20.8097 36.7384 25.4113 36.7384 32.0436V37.4835C36.7384 44.0227 31.7083 48.792 24.8338 48.792H24.8152Z" fill="#EA9606"/>
<path d="M51.8105 48.6243V41.0046H58.8527V7.63824H51.8105V0.0185547H74.446V7.63824H67.3107V41.0046H74.446V48.6243H51.8105Z" fill="#EA9606"/>
<path d="M121.897 48.6244V13.9166L113.01 24.1445H107.813L98.9262 13.9166V48.6244H90.375V0H97.324L110.663 15.5002C110.998 14.4942 123.481 0 123.481 0H130.43V48.6244H121.878H121.897Z" fill="#EA9606"/>
<path d="M154.759 7.78735V20.3626H172.196V28.3176H154.759V48.6057H146.375V0H177.394V7.78735H154.759Z" fill="#EA9606"/>
<path d="M218.138 48.6244H203.551C196.677 48.6244 191.646 43.8551 191.646 37.2973V11.3084C191.646 4.76929 196.677 0 203.551 0H218.138C225.013 0 230.043 4.76929 230.043 11.3084V37.2973C230.043 43.8365 225.013 48.6244 218.138 48.6244ZM221.659 10.8986C221.659 9.22186 220.244 7.78735 218.735 7.78735H202.974C201.465 7.78735 200.03 9.20323 200.03 10.8986V37.7258C200.03 39.4025 201.465 40.837 202.974 40.837H218.735C220.244 40.837 221.659 39.4025 221.659 37.7258V10.8986Z" fill="#EA9606"/>
<path d="M273.974 48.6244V33.8694L254.524 13.5813V48.6244H245.973V0H253.182L273.974 21.8716V0H282.525V48.6244H273.974Z" fill="#EA9606"/>
<path d="M331.652 20.791L320.921 31.4288V48.6057H312.37V31.4288L301.639 20.791C299.124 18.3691 298.453 16.4316 298.453 13.0037V0.0185547H306.837V12.6683C306.837 14.4382 306.837 14.6804 307.917 15.6864L316.543 24.4984L325.262 15.6864C326.342 14.6804 326.342 14.4382 326.342 12.6683V0.0185547H334.8V13.0037C334.8 16.4316 334.13 18.3691 331.615 20.791H331.652Z" fill="#EA9606"/>
</svg>