<?xml version="1.0" encoding="utf-8"?>
<!-- Generator: Adobe Illustrator 24.2.0, SVG Export Plug-In . SVG Version: 6.00 Build 0)  -->
<svg version="1.1" id="Layer_1" xmlns="http://www.w3.org/2000/svg" xmlns:xlink="http://www.w3.org/1999/xlink" x="0px" y="0px"
	 viewBox="0 0 2007.5 1008.5" style="enable-background:new 0 0 2007.5 1008.5;" xml:space="preserve">
<style type="text/css">
	.st0{fill:#7973F4;}
	.st1{fill:#5134E0;}
	.st2{fill:#FFFFFF;}
</style>
<g>
	<g>
		<path class="st0" d="M450.5,445.7c3.1-3.1,3.1-8.2,0-11.4l-44.6-44.6c-3.1-3.1-8.2-3.1-11.4,0l-44.6,44.6c-3.1,3.1-3.1,8.2,0,11.4
			l43.3,43.3v50l-43.3,43.3c-3.1,3.1-3.1,8.2,0,11.4l44.6,44.6c3.1,3.1,8.2,3.1,11.4,0l44.6-44.6c3.1-3.1,3.1-8.2,0-11.4L407,538.8
			v-49.7L450.5,445.7z"/>
		<path class="st1" d="M331.2,361.9c3.1-3.1,3.1-8.2,0-11.4l-44.6-44.6c-3.1-3.1-8.2-3.1-11.4,0l-44.6,44.6c-3.1,3.1-3.1,8.2,0,11.4
			l42.8,42.8v51l-42.8,42.8c-3.1,3.1-3.1,8.2,0,11.4l42.8,42.8v51l-42.8,42.8c-3.1,3.1-3.1,8.2,0,11.4l44.6,44.6
			c3.1,3.1,8.2,3.1,11.4,0l44.6-44.6c3.1-3.1,3.1-8.2,0-11.4l-44-44v-48.7l44-44c3.1-3.1,3.1-8.2,0-11.4l-44-44v-48.7L331.2,361.9z"
			/>
		<path class="st2" d="M566.5,498.6l-44.6-44.6c-3.1-3.1-8.2-3.1-11.4,0l-44.6,44.6c-3.1,3.1-3.1,8.2,0,11.4l44.6,44.6
			c3.1,3.1,8.2,3.1,11.4,0l44.6-44.6C569.6,506.8,569.6,501.7,566.5,498.6z"/>
	</g>
	<g>
		<path class="st0" d="M774.8,531.4c0-12.1-3.4-21.4-10.1-27.7c-5.8-5.4-13.5-8.5-25.1-10.1l-15.8-2.3c-5.2-0.7-9.8-2.7-12.8-5.5
			c-2.7-2.5-4.2-6.2-4.2-10.2c0-10.8,8.4-17.7,21.5-17.7c8.8,0,18.8,1.1,27.4,8.9l15.3-15.2c-10.8-10.2-23.8-14.8-42-14.8
			c-27.8,0-45.7,15.6-45.7,39.7c0,11,3.1,19.4,9.3,25.7c5.8,5.6,14.1,9.2,25.4,10.8l16.1,2.3c6.1,0.9,9.4,2.2,12.3,4.9
			c2.9,2.7,4.4,6.8,4.4,11.9c0,11.2-8.7,17.3-24.5,17.3c-14,0-24.6-3.6-32.3-10.9l-15.7,15.7c11.9,11.8,26.2,16.8,47.6,16.8
			C755.7,571.1,774.8,555.5,774.8,531.4z"/>
		<rect x="813.6" y="438" class="st0" width="24.4" height="132"/>
		<path class="st0" d="M1142.5,478.8c0-24-17.8-40.8-43.3-40.8h-51v132h24.4v-50.3h26.5C1124.7,519.7,1142.5,502.9,1142.5,478.8z
			 M1072.7,497.9v-38.3h25.2c12.1,0,20.2,7.7,20.2,19.2c0,11.4-8.1,19-20.2,19H1072.7z"/>
		<polygon class="st0" points="1175.8,438 1175.8,570 1260.8,570 1260.8,548.4 1200.2,548.4 1200.2,438 		"/>
		<rect x="1296.3" y="438" class="st0" width="24.4" height="132"/>
		<rect x="1499.9" y="438" class="st0" width="24.4" height="132"/>
		<polygon class="st0" points="1654.1,438 1559.8,438 1559.8,459.6 1594.7,459.6 1594.7,570 1619.2,570 1619.2,459.6 1654.1,459.6 
					"/>
		<polygon class="st0" points="1752.8,438 1727.7,493 1702.2,438 1675.7,438 1715.3,516 1715.3,570 1739.6,570 1739.7,515.6 
			1779.2,438 		"/>
		<path class="st0" d="M1420.1,549.1c-1.7,0.2-3.3,0.3-4.9,0.3c-22.5,0-32.6-22.8-32.6-45.5c0,0,0,0,0,0c0,0,0,0,0,0
			c0-22.6,10.1-45.5,32.6-45.5c1.6,0,3.3,0.1,4.9,0.3c8.9,1.5,19.4,7.3,23.2,17.2l19.9-11.7c-3.2-6.2-14.8-23.8-41.9-26.6l-1-0.1
			c-2.1-0.2-3.9-0.3-5.6-0.3c-4.2,0-8.5,0.5-12.6,1.5l-0.9,0.2c-0.8,0.2-1.6,0.4-2.4,0.7c-25.3,7.2-40.7,31.7-40.3,63.9
			c0,0,0,0.1,0,0.1c0,0.1,0,0.1,0,0.2c0,0.1,0,0.1,0,0.2c0,0,0,0.1,0,0.1c-0.4,32.2,15,56.7,40.3,63.9c0.8,0.2,1.6,0.5,2.4,0.7
			l0.9,0.2c4.1,1,8.3,1.5,12.6,1.5c1.7,0,3.5-0.1,5.6-0.3l1-0.1c27.1-2.8,38.7-20.4,41.9-26.6l-19.9-11.7
			C1439.5,541.8,1429,547.6,1420.1,549.1z"/>
		<polygon class="st0" points="1002.7,570 1002.7,438.1 979,438.1 943.1,497.7 907.2,438.1 883.5,438.1 883.5,570 907,570 
			907,481.8 943.2,543.7 979.3,481.8 979.3,570 		"/>
	</g>
</g>
</svg>
